<svg width="256" height="256" viewBox="0 0 256 256" fill="none" xmlns="http://www.w3.org/2000/svg">
<rect width="256" height="256" fill="#375ADA"/>
<g filter="url(#filter0_d_2008_215)">
<rect x="119.389" y="147.444" width="78.8866" height="13.6791" rx="5" transform="rotate(-45 119.389 147.444)" fill="#53AFF3"/>
</g>
<g filter="url(#filter1_d_2008_215)">
<path d="M80.8457 75.9417C81.6694 77.3683 81.1856 79.1878 79.7944 80.07C55.6215 95.3985 39.3131 122.016 38.2854 152.507C38.2296 154.162 36.8921 155.505 35.2361 155.505H26.0004C24.3428 155.505 22.9949 154.158 23.0427 152.501C24.0838 116.391 43.4322 84.8681 72.1307 66.8893C73.5419 66.0053 75.3925 66.4968 76.2251 67.9389L80.8457 75.9417ZM178.833 67.8888C179.665 66.4475 181.514 65.9555 182.925 66.8377C211.67 84.8074 231.055 116.356 232.097 152.501C232.145 154.158 230.797 155.505 229.139 155.505H219.906C218.25 155.505 216.912 154.162 216.856 152.507C215.827 121.982 199.485 95.3406 175.268 80.0201C173.874 79.1387 173.389 77.3178 174.213 75.8901L178.833 67.8888ZM127.57 51C142.277 51 156.275 54.0368 168.971 59.5165C170.585 60.2128 171.194 62.1639 170.316 63.6856L165.656 71.7566C164.885 73.0916 163.23 73.62 161.807 73.0289C151.263 68.6508 139.699 66.2344 127.571 66.2344C115.409 66.2344 103.815 68.6647 93.2475 73.066C91.8233 73.6591 90.1665 73.1311 89.3951 71.795L84.7353 63.724C83.8573 62.2033 84.4658 60.2534 86.0773 59.556C98.7978 54.0513 112.827 51.0001 127.57 51Z" fill="white"/>
</g>
<g filter="url(#filter2_d_2008_215)">
<path d="M87.4463 167.422C90.4085 167.591 92.8418 168.734 94.7461 170.85C96.6504 172.923 98.0257 175.293 98.8721 177.959C99.7184 180.625 100.142 183.354 100.142 186.147C100.142 188.94 99.7184 191.67 98.8721 194.336C98.068 197.002 96.6927 199.393 94.7461 201.509C92.8418 203.582 90.4085 204.704 87.4463 204.873H64.0869C62.9443 204.831 61.971 204.429 61.167 203.667C60.4053 202.863 60.0033 201.89 59.9609 200.747V185.005C60.0033 183.82 60.4476 182.847 61.2939 182.085C62.1403 181.281 63.1559 180.879 64.3408 180.879C65.4834 180.921 66.4567 181.344 67.2607 182.148C68.0648 182.91 68.488 183.862 68.5303 185.005V194.653C68.5303 195.796 69.1227 196.367 70.3076 196.367H85.2881C86.8962 196.283 88.2292 195.669 89.2871 194.526C90.3451 193.384 91.1068 192.093 91.5723 190.654C92.0801 189.173 92.334 187.671 92.334 186.147C92.334 184.624 92.0801 183.143 91.5723 181.704C91.1068 180.223 90.3451 178.911 89.2871 177.769C88.2292 176.626 86.8962 176.012 85.2881 175.928H64.0869C61.5479 175.716 60.1725 174.341 59.9609 171.802C59.9609 170.617 60.3418 169.601 61.1035 168.755C61.9076 167.909 62.902 167.464 64.0869 167.422H87.4463ZM118.867 167.422H121.787H143.369C144.554 167.464 145.527 167.909 146.289 168.755C147.093 169.601 147.495 170.617 147.495 171.802C147.284 174.341 145.908 175.716 143.369 175.928H121.025C119.417 176.012 118.084 176.626 117.026 177.769C115.968 178.911 115.186 180.223 114.678 181.704C114.212 183.143 113.979 184.624 113.979 186.147C113.979 187.671 114.212 189.173 114.678 190.654C115.186 192.093 115.968 193.384 117.026 194.526C118.084 195.669 119.417 196.283 121.025 196.367H143.369C144.554 196.41 145.527 196.854 146.289 197.7C147.093 198.547 147.495 199.562 147.495 200.747C147.453 201.89 147.03 202.863 146.226 203.667C145.464 204.429 144.512 204.831 143.369 204.873H120.073H118.867C115.905 204.704 113.451 203.582 111.504 201.509C109.6 199.393 108.224 197.002 107.378 194.336C106.574 191.67 106.172 188.94 106.172 186.147C106.172 183.354 106.595 180.625 107.441 177.959C108.288 175.293 109.663 172.923 111.567 170.85C113.472 168.734 115.905 167.591 118.867 167.422ZM147.368 185.894C147.368 187.078 146.945 188.073 146.099 188.877C145.295 189.723 144.3 190.146 143.115 190.146H123.945C122.76 190.146 121.745 189.744 120.898 188.94C120.094 188.094 119.692 187.078 119.692 185.894C119.692 184.709 120.094 183.693 120.898 182.847C121.745 182.043 122.76 181.641 123.945 181.641H143.115C144.3 181.641 145.295 182.064 146.099 182.91C146.945 183.714 147.368 184.709 147.368 185.894ZM194.912 171.675C194.912 172.86 194.489 173.854 193.643 174.658C192.839 175.505 191.844 175.928 190.659 175.928H165.269C164.465 175.97 163.787 176.16 163.237 176.499C162.729 176.795 162.349 177.155 162.095 177.578C161.841 177.959 161.714 178.361 161.714 178.784C161.714 179.207 161.841 179.631 162.095 180.054C162.349 180.435 162.729 180.794 163.237 181.133C163.787 181.429 164.465 181.598 165.269 181.641H183.296C186.258 181.725 188.691 182.424 190.596 183.735C192.542 185.005 193.918 186.486 194.722 188.179C195.568 189.829 195.991 191.522 195.991 193.257C195.991 194.95 195.568 196.642 194.722 198.335C193.875 199.985 192.5 201.466 190.596 202.778C188.691 204.048 186.258 204.683 183.296 204.683H182.915C182.661 204.725 182.407 204.746 182.153 204.746H158.159C156.974 204.746 155.959 204.344 155.112 203.54C154.308 202.694 153.906 201.678 153.906 200.493C153.906 199.308 154.329 198.314 155.176 197.51C155.98 196.663 156.974 196.24 158.159 196.24H183.677C184.481 196.283 185.137 196.134 185.645 195.796C186.195 195.457 186.597 195.076 186.851 194.653C187.104 194.188 187.231 193.722 187.231 193.257C187.231 192.961 187.104 192.559 186.851 192.051C186.597 191.501 186.195 191.056 185.645 190.718C185.137 190.379 184.481 190.189 183.677 190.146H165.649C162.687 190.062 160.233 189.385 158.286 188.115C156.382 186.846 155.007 185.407 154.16 183.799C153.356 182.148 152.954 180.477 152.954 178.784C152.954 177.134 153.377 175.505 154.224 173.896C155.07 172.246 156.445 170.786 158.35 169.517C160.254 168.247 162.687 167.57 165.649 167.485H166.03C166.284 167.443 166.538 167.422 166.792 167.422H190.659C191.844 167.422 192.839 167.845 193.643 168.691C194.489 169.495 194.912 170.49 194.912 171.675Z" fill="#EDEDED"/>
</g>
<defs>
<filter id="filter0_d_2008_215" x="118.46" y="93.7335" width="67.3118" height="68.3116" filterUnits="userSpaceOnUse" color-interpolation-filters="sRGB">
<feFlood flood-opacity="0" result="BackgroundImageFix"/>
<feColorMatrix in="SourceAlpha" type="matrix" values="0 0 0 0 0 0 0 0 0 0 0 0 0 0 0 0 0 0 127 0" result="hardAlpha"/>
<feOffset dy="4"/>
<feGaussianBlur stdDeviation="1.5"/>
<feComposite in2="hardAlpha" operator="out"/>
<feColorMatrix type="matrix" values="0 0 0 0 0 0 0 0 0 0 0 0 0 0 0 0 0 0 0.25 0"/>
<feBlend mode="normal" in2="BackgroundImageFix" result="effect1_dropShadow_2008_215"/>
<feBlend mode="normal" in="SourceGraphic" in2="effect1_dropShadow_2008_215" result="shape"/>
</filter>
<filter id="filter1_d_2008_215" x="19.0415" y="51" width="217.057" height="112.505" filterUnits="userSpaceOnUse" color-interpolation-filters="sRGB">
<feFlood flood-opacity="0" result="BackgroundImageFix"/>
<feColorMatrix in="SourceAlpha" type="matrix" values="0 0 0 0 0 0 0 0 0 0 0 0 0 0 0 0 0 0 127 0" result="hardAlpha"/>
<feOffset dy="4"/>
<feGaussianBlur stdDeviation="2"/>
<feComposite in2="hardAlpha" operator="out"/>
<feColorMatrix type="matrix" values="0 0 0 0 0 0 0 0 0 0 0 0 0 0 0 0 0 0 0.25 0"/>
<feBlend mode="normal" in2="BackgroundImageFix" result="effect1_dropShadow_2008_215"/>
<feBlend mode="normal" in="SourceGraphic" in2="effect1_dropShadow_2008_215" result="shape"/>
</filter>
<filter id="filter2_d_2008_215" x="55.9609" y="167.422" width="144.03" height="45.4512" filterUnits="userSpaceOnUse" color-interpolation-filters="sRGB">
<feFlood flood-opacity="0" result="BackgroundImageFix"/>
<feColorMatrix in="SourceAlpha" type="matrix" values="0 0 0 0 0 0 0 0 0 0 0 0 0 0 0 0 0 0 127 0" result="hardAlpha"/>
<feOffset dy="4"/>
<feGaussianBlur stdDeviation="2"/>
<feComposite in2="hardAlpha" operator="out"/>
<feColorMatrix type="matrix" values="0 0 0 0 0 0 0 0 0 0 0 0 0 0 0 0 0 0 0.25 0"/>
<feBlend mode="normal" in2="BackgroundImageFix" result="effect1_dropShadow_2008_215"/>
<feBlend mode="normal" in="SourceGraphic" in2="effect1_dropShadow_2008_215" result="shape"/>
</filter>
</defs>
</svg>
